<svg width="15" height="15" viewBox="0 0 15 15" fill="none" xmlns="http://www.w3.org/2000/svg">
<path d="M13.0918 5.19029C13.0855 4.71693 12.9969 4.24828 12.8299 3.80529C12.6851 3.43164 12.464 3.09229 12.1807 2.80894C11.8973 2.52558 11.558 2.30445 11.1843 2.15967C10.747 1.99552 10.285 1.90676 9.81805 1.89717C9.2168 1.87029 9.02617 1.86279 7.49992 1.86279C5.97367 1.86279 5.77805 1.86279 5.18117 1.89717C4.7144 1.90683 4.25264 1.99559 3.81555 2.15967C3.44183 2.30435 3.10244 2.52545 2.81907 2.80881C2.5357 3.09218 2.3146 3.43158 2.16992 3.80529C2.00544 4.24225 1.91687 4.70411 1.90805 5.17092C1.88117 5.77279 1.87305 5.96342 1.87305 7.48967C1.87305 9.01592 1.87305 9.21092 1.90805 9.80842C1.91742 10.2759 2.00555 10.7372 2.16992 11.1753C2.31485 11.5489 2.53611 11.8882 2.81957 12.1714C3.10303 12.4546 3.44246 12.6757 3.81617 12.8203C4.25207 12.991 4.7139 13.0862 5.1818 13.1015C5.78367 13.1284 5.9743 13.1365 7.50055 13.1365C9.0268 13.1365 9.22242 13.1365 9.8193 13.1015C10.2863 13.0923 10.7483 13.0038 11.1855 12.8397C11.5591 12.6947 11.8984 12.4735 12.1817 12.1902C12.465 11.9069 12.6862 11.5676 12.8312 11.194C12.9955 10.7565 13.0837 10.2953 13.093 9.82717C13.1199 9.22592 13.128 9.03529 13.128 7.50842C13.1268 5.98217 13.1268 5.78842 13.0918 5.19029V5.19029ZM7.49617 10.3759C5.89992 10.3759 4.6068 9.08279 4.6068 7.48654C4.6068 5.89029 5.89992 4.59717 7.49617 4.59717C8.26248 4.59717 8.99741 4.90158 9.53927 5.44345C10.0811 5.98531 10.3855 6.72023 10.3855 7.48654C10.3855 8.25285 10.0811 8.98778 9.53927 9.52964C8.99741 10.0715 8.26248 10.3759 7.49617 10.3759V10.3759ZM10.5005 5.16404C10.412 5.16412 10.3244 5.14675 10.2426 5.11292C10.1608 5.07909 10.0865 5.02947 10.024 4.96689C9.96137 4.90431 9.91175 4.83 9.87792 4.74822C9.84409 4.66644 9.82671 4.57879 9.8268 4.49029C9.8268 4.40186 9.84422 4.31428 9.87806 4.23258C9.9119 4.15087 9.96151 4.07664 10.024 4.0141C10.0866 3.95157 10.1608 3.90196 10.2425 3.86812C10.3242 3.83427 10.4118 3.81686 10.5002 3.81686C10.5887 3.81686 10.6762 3.83427 10.7579 3.86812C10.8397 3.90196 10.9139 3.95157 10.9764 4.0141C11.039 4.07664 11.0886 4.15087 11.1224 4.23258C11.1563 4.31428 11.1737 4.40186 11.1737 4.49029C11.1737 4.86279 10.8724 5.16404 10.5005 5.16404Z" fill="#111111"/>
<path d="M7.49406 9.36361C8.53063 9.36361 9.37094 8.52331 9.37094 7.48674C9.37094 6.45017 8.53063 5.60986 7.49406 5.60986C6.45749 5.60986 5.61719 6.45017 5.61719 7.48674C5.61719 8.52331 6.45749 9.36361 7.49406 9.36361Z" fill="#111111"/>
</svg>
