<svg width="15" height="15" viewBox="0 0 15 15" fill="none" xmlns="http://www.w3.org/2000/svg">
<path d="M10.3746 3.6375C10.3746 3.6375 10.6934 3.95 10.3746 3.6375C9.94737 3.14976 9.71193 2.5234 9.71211 1.875H7.78086V9.625C7.76596 10.0444 7.5889 10.4416 7.28696 10.7331C6.98502 11.0245 6.58176 11.1874 6.16211 11.1875C5.27461 11.1875 4.53711 10.4625 4.53711 9.5625C4.53711 8.4875 5.57461 7.68125 6.64336 8.0125V6.0375C4.48711 5.75 2.59961 7.425 2.59961 9.5625C2.59961 11.6438 4.32461 13.125 6.15586 13.125C8.11836 13.125 9.71211 11.5313 9.71211 9.5625V5.63125C10.4952 6.19366 11.4355 6.4954 12.3996 6.49375V4.5625C12.3996 4.5625 11.2246 4.61875 10.3746 3.6375Z" fill="#111111"/>
</svg>
