<svg width="34" height="36" viewBox="0 0 34 36" fill="none" xmlns="http://www.w3.org/2000/svg">
<path fill-rule="evenodd" clip-rule="evenodd" d="M21.772 18.667C21.4962 17.887 20.9853 17.2117 20.3098 16.7341C19.6343 16.2565 18.8273 16 18 16V15H16V16C14.9391 16 13.9217 16.4214 13.1716 17.1716C12.4214 17.9217 12 18.9391 12 20C12 21.0609 12.4214 22.0783 13.1716 22.8284C13.9217 23.5786 14.9391 24 16 24V28C15.13 28 14.389 27.445 14.113 26.667C14.0721 26.5397 14.006 26.4219 13.9187 26.3206C13.8315 26.2193 13.7248 26.1365 13.605 26.0772C13.4851 26.0178 13.3546 25.9831 13.2212 25.9751C13.0877 25.967 12.954 25.9858 12.8279 26.0304C12.7018 26.0749 12.586 26.1443 12.4872 26.2344C12.3884 26.3245 12.3087 26.4335 12.2527 26.5549C12.1968 26.6764 12.1658 26.8078 12.1616 26.9415C12.1573 27.0751 12.1799 27.2082 12.228 27.333C12.5038 28.113 13.0147 28.7883 13.6902 29.2659C14.3657 29.7435 15.1727 30 16 30V31H18V30C19.0609 30 20.0783 29.5786 20.8284 28.8284C21.5786 28.0783 22 27.0609 22 26C22 24.9391 21.5786 23.9217 20.8284 23.1716C20.0783 22.4214 19.0609 22 18 22V18C18.4136 17.9999 18.8171 18.128 19.1549 18.3668C19.4926 18.6055 19.7481 18.9431 19.886 19.333C19.9743 19.5831 20.1584 19.7879 20.3977 19.9023C20.5162 19.9589 20.6446 19.9917 20.7758 19.9987C20.9069 20.0056 21.0382 19.9867 21.162 19.943C21.2858 19.8993 21.3998 19.8316 21.4975 19.7438C21.5952 19.656 21.6746 19.5498 21.7313 19.4313C21.7879 19.3128 21.8207 19.1844 21.8277 19.0532C21.8346 18.9221 21.8157 18.7908 21.772 18.667V18.667ZM16 18C15.4696 18 14.9609 18.2107 14.5858 18.5858C14.2107 18.9609 14 19.4696 14 20C14 20.5304 14.2107 21.0391 14.5858 21.4142C14.9609 21.7893 15.4696 22 16 22V18ZM18 28C18.5304 28 19.0391 27.7893 19.4142 27.4142C19.7893 27.0391 20 26.5304 20 26C20 25.4696 19.7893 24.9609 19.4142 24.5858C19.0391 24.2107 18.5304 24 18 24V28Z" fill="#111111"/>
<path fill-rule="evenodd" clip-rule="evenodd" d="M6.15298 2.621C8.60698 1.42 12.633 0 17.039 0C21.353 0 25.273 1.361 27.714 2.546L27.852 2.613C28.588 2.977 29.182 3.321 29.6 3.6L25.906 9C34.422 17.706 41 35.997 17.039 35.997C-6.92202 35.997 -0.521019 18.038 8.06898 9L4.39898 3.6C4.68198 3.415 5.04098 3.2 5.46898 2.972C5.68098 2.858 5.90898 2.741 6.15298 2.622V2.621ZM23.532 8.928L26.489 4.605C23.739 4.803 20.467 5.449 17.317 6.361C15.067 7.011 12.567 6.912 10.252 6.485C9.66861 6.37685 9.08925 6.2481 8.51498 6.099L10.435 8.926C14.55 10.391 19.416 10.391 23.532 8.928V8.928ZM9.27998 10.63C14.095 12.49 19.882 12.49 24.697 10.628C26.7068 12.7467 28.3882 15.1544 29.685 17.771C31.037 20.529 31.773 23.286 31.653 25.662C31.537 27.955 30.635 29.914 28.575 31.37C26.428 32.887 22.817 33.997 17.038 33.997C11.253 33.997 7.62498 32.906 5.45798 31.406C3.38298 29.968 2.47198 28.036 2.34298 25.774C2.20798 23.424 2.92798 20.681 4.27498 17.904C5.55998 15.256 7.35298 12.707 9.27998 10.63V10.63ZM8.12998 3.916C8.92998 4.154 9.76598 4.361 10.614 4.518C12.764 4.914 14.92 4.972 16.76 4.439C18.9042 3.81434 21.085 3.32307 23.29 2.968C21.45 2.414 19.298 2 17.038 2C13.593 2 10.38 2.961 8.12998 3.916V3.916Z" fill="#111111"/>
</svg>
