<svg width="128" height="47" viewBox="0 0 128 47" fill="none" xmlns="http://www.w3.org/2000/svg">
<path d="M39.3214 28.692V16.346L21.1607 4L3 16.346L21.1607 28.692L30.6043 22.9939V36.2896C30.6043 40.0883 26.2457 43.8871 21.1607 43.8871C16.0757 43.8871 11.7171 40.0883 11.7171 36.2896V22.9939" stroke="#111111" stroke-width="4.35857" stroke-linecap="round" stroke-linejoin="round"/>
<path d="M4.1709 16.3917L21.1705 6.22561L38.8716 18.2239L20.9743 26.8882L4.1709 16.3917Z" fill="#2C4267"/>
<path d="M39.3214 28.692V16.346L21.1607 4L3 16.346L21.1607 28.692L30.6043 22.9939V36.2896C30.6043 40.0883 26.2457 43.8871 21.1607 43.8871C16.0757 43.8871 11.7171 40.0883 11.7171 36.2896V22.9939" stroke="#324E7B" stroke-opacity="0.81" stroke-width="4.35857" stroke-linecap="round" stroke-linejoin="round"/>
<path d="M14.9921 9.74683L29 21.2534L23.5 24.2534L21 16.2534L10.0002 12.7535L14.9921 9.74683Z" fill="white"/>
<path d="M58.9274 31.8476C58.9274 32.7682 58.6954 33.6424 58.2312 34.4702C57.767 35.2903 57.0436 35.9556 56.0611 36.4662C55.0863 36.9768 53.8253 37.2321 52.278 37.2321C51.5044 37.2321 50.8236 37.1973 50.2357 37.1276C49.6554 37.058 49.1139 36.9458 48.611 36.7911C48.1082 36.6287 47.586 36.4198 47.0444 36.1645V32.0797C47.965 32.5439 48.8934 32.8997 49.8295 33.1473C50.7656 33.3871 51.6127 33.507 52.3709 33.507C52.8273 33.507 53.1987 33.4529 53.4849 33.3446C53.7789 33.2363 53.9955 33.0893 54.1348 32.9036C54.274 32.7102 54.3437 32.4897 54.3437 32.2421C54.3437 31.9482 54.2392 31.7006 54.0303 31.4995C53.8292 31.2906 53.5043 31.074 53.0556 30.8496C52.6068 30.6252 52.015 30.3467 51.2801 30.0141C50.6534 29.7201 50.0848 29.4184 49.5742 29.1089C49.0713 28.7995 48.6381 28.4475 48.2745 28.0529C47.9186 27.6506 47.644 27.1826 47.4506 26.6488C47.2572 26.115 47.1605 25.4844 47.1605 24.7572C47.1605 23.6664 47.4274 22.7535 47.9612 22.0186C48.5027 21.2759 49.2531 20.7188 50.2124 20.3475C51.1795 19.9762 52.2935 19.7905 53.5545 19.7905C54.6608 19.7905 55.655 19.9143 56.5369 20.1618C57.4266 20.4094 58.2234 20.6918 58.9274 21.009L57.5233 24.5483C56.7961 24.2157 56.0805 23.9526 55.3765 23.7592C54.6724 23.5581 54.0187 23.4575 53.4153 23.4575C53.0207 23.4575 52.6958 23.5078 52.4405 23.6084C52.1929 23.7012 52.0073 23.8289 51.8835 23.9913C51.7674 24.1538 51.7094 24.3395 51.7094 24.5483C51.7094 24.8114 51.81 25.0473 52.0111 25.2562C52.22 25.4651 52.5643 25.6933 53.0439 25.9409C53.5313 26.1807 54.1928 26.494 55.0283 26.8809C55.8561 27.2522 56.5601 27.6545 57.1403 28.0877C57.7206 28.5132 58.1615 29.0277 58.4633 29.6311C58.7727 30.2268 58.9274 30.9656 58.9274 31.8476ZM74.0714 23.8521V37H70.648L70.0794 35.3638H69.8125C69.5417 35.8047 69.1974 36.1645 68.7797 36.443C68.3697 36.7138 67.9132 36.911 67.4104 37.0348C66.9075 37.1663 66.3853 37.2321 65.8437 37.2321C64.985 37.2321 64.2075 37.0658 63.5112 36.7331C62.8227 36.4004 62.2734 35.8782 61.8634 35.1665C61.4611 34.4547 61.26 33.538 61.26 32.4162V23.8521H65.7973V31.0353C65.7973 31.8863 65.9172 32.5361 66.1571 32.9848C66.4046 33.4258 66.8069 33.6463 67.3639 33.6463C67.9364 33.6463 68.3774 33.4916 68.6869 33.1821C69.004 32.8727 69.2245 32.4162 69.3483 31.8128C69.4721 31.2093 69.534 30.4744 69.534 29.6079V23.8521H74.0714ZM85.4322 23.62C86.786 23.62 87.8923 24.0029 88.7511 24.7688C89.6098 25.5347 90.0392 26.7609 90.0392 28.4475V37H85.5018V29.8284C85.5018 28.9542 85.3742 28.2966 85.1189 27.8556C84.8713 27.4069 84.469 27.1826 83.912 27.1826C83.0533 27.1826 82.4769 27.5346 82.1829 28.2386C81.8889 28.9349 81.7419 29.9367 81.7419 31.2442V37H77.2046V23.8521H80.6279L81.2429 25.5927H81.417C81.6955 25.175 82.0282 24.8191 82.415 24.5251C82.8018 24.2312 83.2467 24.0068 83.7495 23.8521C84.2524 23.6973 84.8133 23.62 85.4322 23.62ZM97.6634 18.9434V23.0281C97.6634 23.4923 97.6479 23.9372 97.6169 24.3627C97.586 24.7804 97.5473 25.175 97.5009 25.5463H97.6634C98.0038 25.0125 98.4486 24.5599 98.9979 24.1886C99.5472 23.8095 100.267 23.62 101.156 23.62C102.526 23.62 103.644 24.2002 104.51 25.3607C105.384 26.5211 105.821 28.1999 105.821 30.397C105.821 31.8901 105.62 33.1473 105.218 34.1685C104.816 35.182 104.251 35.9479 103.524 36.4662C102.804 36.9768 101.969 37.2321 101.017 37.2321C100.089 37.2321 99.3808 37.0735 98.8934 36.7563C98.4138 36.4314 98.0038 36.0832 97.6634 35.7119H97.3848L96.6654 37H93.126V18.9434H97.6634ZM99.4969 27.1826C99.0791 27.1826 98.7348 27.2793 98.4641 27.4727C98.1933 27.6661 97.9921 27.9678 97.8606 28.3778C97.7291 28.7801 97.6634 29.2946 97.6634 29.9212V30.5595C97.6634 31.5807 97.7987 32.3388 98.0695 32.834C98.348 33.3291 98.8393 33.5767 99.5433 33.5767C100.077 33.5767 100.487 33.302 100.773 32.7527C101.06 32.2035 101.203 31.4027 101.203 30.3506C101.203 29.2985 101.063 28.5094 100.785 27.9833C100.506 27.4495 100.077 27.1826 99.4969 27.1826ZM112.981 23.8521V37H108.444V23.8521H112.981ZM110.73 18.5604C111.38 18.5604 111.945 18.6958 112.424 18.9666C112.912 19.2373 113.155 19.775 113.155 20.5796C113.155 21.361 112.912 21.8909 112.424 22.1694C111.945 22.4402 111.38 22.5756 110.73 22.5756C110.065 22.5756 109.496 22.4402 109.024 22.1694C108.56 21.8909 108.328 21.361 108.328 20.5796C108.328 19.775 108.56 19.2373 109.024 18.9666C109.496 18.6958 110.065 18.5604 110.73 18.5604ZM122.137 37.2321C120.807 37.2321 119.65 36.9961 118.668 36.5242C117.685 36.0446 116.923 35.3096 116.381 34.3194C115.848 33.3214 115.581 32.0449 115.581 30.4899C115.581 28.8962 115.879 27.5926 116.474 26.5791C117.078 25.5657 117.902 24.8191 118.946 24.3395C119.99 23.8598 121.174 23.62 122.497 23.62C123.302 23.62 124.064 23.7089 124.783 23.8869C125.51 24.0648 126.183 24.3085 126.802 24.618L125.468 27.9717C124.926 27.7319 124.42 27.5423 123.948 27.4031C123.483 27.2561 123 27.1826 122.497 27.1826C122.041 27.1826 121.638 27.3025 121.29 27.5423C120.942 27.7821 120.671 28.1457 120.478 28.6331C120.284 29.1128 120.188 29.724 120.188 30.4667C120.188 31.2248 120.284 31.836 120.478 32.3002C120.679 32.7643 120.954 33.1009 121.302 33.3098C121.658 33.5186 122.064 33.6231 122.52 33.6231C123.178 33.6231 123.832 33.5225 124.481 33.3214C125.139 33.1125 125.762 32.8262 126.35 32.4626V36.0716C125.808 36.4275 125.197 36.7099 124.516 36.9188C123.835 37.1276 123.042 37.2321 122.137 37.2321Z" fill="#2C4267"/>
</svg>
