<svg width="60" height="60" viewBox="0 0 60 60" fill="none" xmlns="http://www.w3.org/2000/svg">
<circle cx="30" cy="30" r="30" fill="white"/>
<path d="M47.3214 34.692V22.346L29.1607 10L11 22.346L29.1607 34.692L38.6043 28.9939V42.2896C38.6043 46.0883 34.2457 49.8871 29.1607 49.8871C24.0757 49.8871 19.7171 46.0883 19.7171 42.2896V28.9939" stroke="#111111" stroke-width="4.35857" stroke-linecap="round" stroke-linejoin="round"/>
<path d="M12.1709 22.3917L29.1705 12.2256L46.8716 24.2239L28.9743 32.8882L12.1709 22.3917Z" fill="#2C4267"/>
<path d="M47.3214 34.692V22.346L29.1607 10L11 22.346L29.1607 34.692L38.6043 28.9939V42.2896C38.6043 46.0883 34.2457 49.8871 29.1607 49.8871C24.0757 49.8871 19.7171 46.0883 19.7171 42.2896V28.9939" stroke="#324E7B" stroke-opacity="0.81" stroke-width="4.35857" stroke-linecap="round" stroke-linejoin="round"/>
<path d="M22.9921 15.7468L37 27.2534L31.5 30.2534L29 22.2534L18.0002 18.7535L22.9921 15.7468Z" fill="white"/>
</svg>
