<svg width="60" height="54" viewBox="0 0 60 54" fill="none" xmlns="http://www.w3.org/2000/svg">
<path fill-rule="evenodd" clip-rule="evenodd" d="M21.7097 0C9.71997 0 0 9.71997 0 21.7097C0 48.6597 35.9333 53.9 35.9333 53.9V43.4194H38.1792C50.1689 43.4194 59.8889 33.6995 59.8889 21.7097C59.8889 9.71997 50.1689 0 38.1792 0H21.7097ZM29.9444 26.2014C30.9372 26.2014 31.8892 25.807 32.5912 25.1051C33.2931 24.4031 33.6875 23.4511 33.6875 22.4583C33.6875 21.4656 33.2931 20.5136 32.5912 19.8116C31.8892 19.1096 30.9372 18.7153 29.9444 18.7153C28.9517 18.7153 27.9997 19.1096 27.2977 19.8116C26.5957 20.5136 26.2014 21.4656 26.2014 22.4583C26.2014 23.4511 26.5957 24.4031 27.2977 25.1051C27.9997 25.807 28.9517 26.2014 29.9444 26.2014V26.2014ZM45.6653 22.4583C45.6653 23.4511 45.2709 24.4031 44.569 25.1051C43.867 25.807 42.9149 26.2014 41.9222 26.2014C40.9295 26.2014 39.9774 25.807 39.2755 25.1051C38.5735 24.4031 38.1792 23.4511 38.1792 22.4583C38.1792 21.4656 38.5735 20.5136 39.2755 19.8116C39.9774 19.1096 40.9295 18.7153 41.9222 18.7153C42.9149 18.7153 43.867 19.1096 44.569 19.8116C45.2709 20.5136 45.6653 21.4656 45.6653 22.4583ZM17.9667 26.2014C18.9594 26.2014 19.9114 25.807 20.6134 25.1051C21.3154 24.4031 21.7097 23.4511 21.7097 22.4583C21.7097 21.4656 21.3154 20.5136 20.6134 19.8116C19.9114 19.1096 18.9594 18.7153 17.9667 18.7153C16.9739 18.7153 16.0219 19.1096 15.3199 19.8116C14.618 20.5136 14.2236 21.4656 14.2236 22.4583C14.2236 23.4511 14.618 24.4031 15.3199 25.1051C16.0219 25.807 16.9739 26.2014 17.9667 26.2014V26.2014Z" fill="white"/>
</svg>
