<svg width="60" height="60" viewBox="0 0 60 60" fill="none" xmlns="http://www.w3.org/2000/svg">
<path d="M33 43.3333H27C25.35 43.3333 24 41.8333 24 40H3.03V53.3333C3.03 57 5.73 60 9.03 60H51C54.3 60 57 57 57 53.3333V40H36C36 41.8333 34.65 43.3333 33 43.3333ZM54 13.3333H42C42 5.96667 36.63 0 30 0C23.37 0 18 5.96667 18 13.3333H6C2.7 13.3333 0 16.3333 0 20V30C0 33.7 2.67 36.6667 6 36.6667H24V33.3333C24 31.5 25.35 30 27 30H33C34.65 30 36 31.5 36 33.3333V36.6667H54C57.3 36.6667 60 33.6667 60 30V20C60 16.3333 57.3 13.3333 54 13.3333ZM24 13.3333C24 9.66667 26.7 6.66667 30 6.66667C33.3 6.66667 36 9.66667 36 13.3333H23.97H24Z" fill="white"/>
</svg>
