<svg width="67" height="53" viewBox="0 0 67 53" fill="none" xmlns="http://www.w3.org/2000/svg">
<path d="M28.1898 0C10.571 0 0 14.1332 0 21.2006C0 28.2679 3.5232 33.568 10.571 33.568C17.6188 33.568 21.1434 35.3338 21.1434 40.6339C21.1434 47.6999 26.4282 53 33.476 53C56.3809 53 66.9505 40.6339 66.9505 28.2679C66.9491 7.06732 49.3276 0 28.1898 0ZM23.7851 7.06732C24.3642 7.06805 24.9376 7.18285 25.4724 7.40516C26.0072 7.62748 26.493 7.95295 26.902 8.363C27.311 8.77305 27.6352 9.25965 27.8562 9.79501C28.0771 10.3304 28.1905 10.904 28.1898 11.4832C28.1898 13.924 26.2176 15.9004 23.7851 15.9004C21.3526 15.9004 19.3804 13.9226 19.3804 11.4832C19.3796 10.904 19.493 10.3304 19.714 9.79501C19.9349 9.25965 20.2592 8.77305 20.6682 8.363C21.0772 7.95295 21.563 7.62748 22.0978 7.40516C22.6326 7.18285 23.2059 7.06805 23.7851 7.06732V7.06732ZM37.8779 7.06732C38.457 7.06805 39.0304 7.18285 39.5652 7.40516C40.1 7.62748 40.5858 7.95295 40.9948 8.363C41.4038 8.77305 41.728 9.25965 41.949 9.79501C42.1699 10.3304 42.2833 10.904 42.2826 11.4832C42.2835 12.0625 42.1703 12.6362 41.9494 13.1718C41.7285 13.7073 41.4043 14.194 40.9953 14.6042C40.5862 15.0144 40.1004 15.34 39.5655 15.5624C39.0306 15.7848 38.4571 15.8997 37.8779 15.9004C37.2987 15.8995 36.7254 15.7845 36.1907 15.562C35.6559 15.3396 35.1703 15.0139 34.7614 14.6037C34.3525 14.1936 34.0284 13.7069 33.8076 13.1714C33.5868 12.636 33.4736 12.0623 33.4746 11.4832C33.4731 10.3137 33.9361 9.19159 34.7619 8.36349C35.5876 7.5354 36.7084 7.06917 37.8779 7.06732V7.06732ZM51.9734 14.1332C52.5528 14.1338 53.1265 14.2485 53.6615 14.4708C54.1966 14.6931 54.6826 15.0187 55.0917 15.4289C55.5009 15.8391 55.8253 16.326 56.0462 16.8616C56.2672 17.3972 56.3805 17.9711 56.3795 18.5505C56.3805 19.1298 56.2672 19.7037 56.0462 20.2392C55.8252 20.7747 55.5009 21.2615 55.0917 21.6716C54.6825 22.0817 54.1964 22.4071 53.6614 22.6293C53.1264 22.8514 52.5528 22.966 51.9734 22.9663C51.3943 22.9658 50.8209 22.8511 50.2861 22.6288C49.7513 22.4066 49.2656 22.0811 48.8566 21.671C48.4477 21.2609 48.1236 20.7742 47.9028 20.2388C47.6821 19.7033 47.569 19.1296 47.5701 18.5505C47.569 17.9713 47.6821 17.3975 47.9028 16.862C48.1235 16.3265 48.4476 15.8397 48.8565 15.4295C49.2655 15.0193 49.7512 14.6937 50.286 14.4712C50.8208 14.2488 51.3942 14.134 51.9734 14.1332V14.1332ZM11.4525 17.6676C12.0315 17.6681 12.6048 17.7828 13.1395 18.005C13.6742 18.2271 14.1599 18.5525 14.5688 18.9625C14.9777 19.3724 15.3019 19.8589 15.5227 20.3942C15.7435 20.9295 15.8567 21.503 15.8558 22.0821C15.8558 24.5229 13.8836 26.4993 11.4525 26.4993C9.0214 26.4993 7.04779 24.5215 7.04779 22.0821C7.04668 20.9126 7.51008 19.7906 8.33608 18.9628C9.16208 18.135 10.283 17.6691 11.4525 17.6676V17.6676ZM33.4746 35.3338C36.3938 35.3338 38.7594 37.7049 38.7594 40.6353C38.7594 43.5616 36.3938 45.9341 33.4746 45.9341C30.5553 45.9341 28.1898 43.5616 28.1898 40.6353C28.1885 39.9402 28.3242 39.2516 28.5891 38.6089C28.854 37.9662 29.243 37.382 29.7338 36.8896C30.2245 36.3973 30.8075 36.0065 31.4494 35.7395C32.0912 35.4726 32.7794 35.3347 33.4746 35.3338V35.3338Z" fill="white"/>
</svg>
