<svg width="50" height="57" viewBox="0 0 50 57" fill="none" xmlns="http://www.w3.org/2000/svg">
<path d="M15.6047 56.2832V46.9027H12.4779C10.7581 46.9027 9.28641 46.2908 8.06277 45.0672C6.83705 43.8415 6.22419 42.3687 6.22419 40.649V34.3953H3.09735C1.84661 34.3953 0.948164 33.8741 0.402008 32.8319C-0.146231 31.7896 -0.133724 30.7473 0.439531 29.705L6.61505 18.7611C7.03196 13.5497 9.32498 9.11996 13.4941 5.47198C17.6632 1.82399 22.5359 0 28.1121 0C34.1573 0 39.3166 2.13668 43.59 6.41003C47.8633 10.6834 50 15.8427 50 21.8879C50 26.3176 48.841 30.2783 46.523 33.7699C44.2028 37.2616 41.1927 39.9194 37.4926 41.7434V56.2832H15.6047ZM24.9853 34.3953H31.2389L31.708 30.4867C32.1249 30.3304 32.4897 30.1605 32.8024 29.977C33.115 29.7957 33.4277 29.5487 33.7404 29.236L37.3363 30.7994L40.4631 25.4838L37.3363 23.1386C37.4405 22.7217 37.4926 22.3048 37.4926 21.8879C37.4926 21.471 37.4405 21.0541 37.3363 20.6372L40.4631 18.292L37.3363 12.9764L33.7404 14.5398C33.4277 14.2271 33.115 13.9791 32.8024 13.7956C32.4897 13.6143 32.1249 13.4454 31.708 13.2891L31.2389 9.38053H24.9853L24.5162 13.2891C24.0993 13.4454 23.7345 13.6143 23.4218 13.7956C23.1091 13.9791 22.7965 14.2271 22.4838 14.5398L18.8879 12.9764L15.7611 18.292L18.8879 20.6372C18.7837 21.0541 18.7316 21.471 18.7316 21.8879C18.7316 22.3048 18.7837 22.7217 18.8879 23.1386L15.7611 25.4838L18.8879 30.7994L22.4838 29.236C22.7965 29.5487 23.1091 29.7957 23.4218 29.977C23.7345 30.1605 24.0993 30.3304 24.5162 30.4867L24.9853 34.3953ZM28.1121 26.5782C26.7571 26.5782 25.6367 26.1352 24.7507 25.2493C23.8648 24.3633 23.4218 23.2429 23.4218 21.8879C23.4218 20.5329 23.8648 19.4125 24.7507 18.5265C25.6367 17.6406 26.7571 17.1976 28.1121 17.1976C29.4671 17.1976 30.5875 17.6406 31.4735 18.5265C32.3594 19.4125 32.8024 20.5329 32.8024 21.8879C32.8024 23.2429 32.3594 24.3633 31.4735 25.2493C30.5875 26.1352 29.4671 26.5782 28.1121 26.5782Z" fill="white"/>
</svg>
