<svg width="61" height="60" viewBox="0 0 61 60" fill="none" xmlns="http://www.w3.org/2000/svg">
<path d="M18.752 11.25C18.752 5.03672 23.7887 0 30.002 0C36.2152 0 41.252 5.03672 41.252 11.25C41.252 17.4633 36.2152 22.5 30.002 22.5C23.7887 22.5 18.752 17.4633 18.752 11.25ZM32.6281 28.2539C39.5809 23.9977 50.8426 22.8281 56.5098 22.5059C58.4141 22.398 60.002 23.8488 60.002 25.6805V51.7898C60.002 53.4691 58.6437 54.8695 56.8977 54.9598C51.7813 55.2281 41.4301 56.2113 34.2758 59.8148C33.1777 60.368 31.8758 59.6145 31.8758 58.4238V29.5969C31.877 29.0496 32.1477 28.548 32.6281 28.2539ZM3.49414 22.5059C9.16015 22.827 20.423 23.9977 27.3746 28.2539C27.8551 28.548 28.1258 29.0695 28.1258 29.6168V58.4203C28.1258 59.6145 26.8203 60.3691 25.7188 59.8148C18.5656 56.2148 8.22031 55.2316 3.10508 54.9633C1.35899 54.8719 0.000780106 53.4715 0.000780106 51.7922V25.6805C0.00195198 23.8488 1.58984 22.398 3.49414 22.5059V22.5059Z" fill="white"/>
</svg>
